<svg version="1.1" id="Layer_1" xmlns="http://www.w3.org/2000/svg" xmlns:xlink="http://www.w3.org/1999/xlink" x="0px" y="0px"
	 width="100%" viewBox="0 0 1278 716" enable-background="new 0 0 1278 716" xml:space="preserve">
<path fill="#FFFFFF" opacity="1.000000" stroke="none" 
	d="
M835.000000,717.000000 
	C556.701477,717.000000 278.902954,717.000000 1.052214,717.000000 
	C1.052214,478.398041 1.052214,239.796097 1.052214,1.097068 
	C426.881897,1.097068 852.763855,1.097068 1278.822876,1.097068 
	C1278.822876,239.666565 1278.822876,478.333282 1278.822876,717.000000 
	C1131.129272,717.000000 983.314636,717.000000 835.000000,717.000000 
M385.920105,511.966522 
	C394.275970,511.924164 402.631836,511.881805 411.917877,511.973907 
	C425.607971,511.926453 439.298065,511.878998 453.919250,511.964813 
	C462.608124,511.924347 471.297028,511.883881 480.917145,511.970978 
	C491.275696,511.927338 501.634216,511.883698 512.807312,511.958893 
	C522.830261,511.411133 529.154663,505.208008 529.158875,495.568420 
	C529.193787,414.747559 529.196106,333.926727 529.152710,253.105896 
	C529.147705,243.783752 522.513916,237.402817 512.062195,237.047836 
	C500.703522,237.083206 489.344849,237.118576 477.056335,237.044418 
	C466.034332,237.082153 455.012329,237.119904 443.060486,237.041779 
	C432.701202,237.081604 422.341949,237.121445 411.054047,237.046097 
	C395.698303,237.083115 380.342529,237.120117 364.057495,237.041016 
	C351.366669,237.083328 338.675842,237.125656 325.056396,237.048508 
	C313.035126,237.088669 301.013885,237.128845 288.064392,237.039658 
	C280.374023,237.082031 272.683685,237.124405 264.121979,237.037048 
	C249.963745,236.906601 243.998093,242.738571 243.997498,256.744537 
	C243.994141,335.511200 243.992447,414.277863 243.999298,493.044525 
	C244.000458,506.285248 250.634079,512.498230 264.923584,511.973907 
	C272.946594,511.926270 280.969604,511.878601 289.921875,511.971344 
	C301.942902,511.924927 313.963928,511.878510 326.914032,511.977692 
	C338.940765,511.927887 350.967529,511.878082 363.923859,511.963776 
	C370.946136,511.918976 377.968445,511.874207 385.920105,511.966522 
M695.190674,342.270416 
	C680.509583,343.478973 669.830811,350.872406 662.288696,363.702087 
	C656.287292,353.259247 647.960938,345.888947 635.181763,343.057983 
	C618.883362,339.767609 606.353577,345.273315 596.903687,360.687897 
	C596.903687,354.079254 596.903687,348.909393 596.903687,343.634399 
	C587.779419,343.634399 579.196533,343.634399 570.546997,343.634399 
	C570.546997,376.398682 570.546997,408.885864 570.546997,441.321625 
	C579.560974,441.321625 588.156128,441.321625 597.149963,441.321625 
	C597.149963,439.196228 597.149902,437.388428 597.149963,435.580597 
	C597.150146,420.097656 597.054443,404.613983 597.179626,389.132050 
	C597.287048,375.852600 607.566162,365.615631 620.341003,365.674103 
	C625.997559,365.699982 630.585938,368.113953 634.963745,372.262634 
	C638.744629,377.609894 640.291504,383.500946 640.198914,390.094879 
	C639.983826,405.416595 640.130554,420.743408 640.130615,436.068146 
	C640.130615,437.818665 640.130615,439.569183 640.130615,441.351257 
	C649.477844,441.351257 658.070984,441.351257 667.141602,441.351257 
	C667.141602,439.259155 667.141602,437.460480 667.141602,435.661774 
	C667.141663,420.503601 667.073120,405.344849 667.207703,390.187866 
	C667.230652,387.595703 667.708862,384.843506 668.682007,382.452209 
	C672.964661,371.928162 680.163208,364.001740 696.531250,366.402496 
	C705.741821,369.296600 709.888000,376.174805 710.089111,385.226654 
	C710.466248,402.202301 710.277649,419.190521 710.323059,436.173492 
	C710.327698,437.926544 710.323608,439.679565 710.323608,441.351746 
	C719.823669,441.351746 728.570801,441.351746 737.254272,441.351746 
	C737.254272,421.412537 737.407593,401.796326 737.140564,382.185822 
	C737.078064,377.601349 735.931091,372.942200 734.698120,368.479004 
	C729.947693,351.283356 713.629333,340.392456 695.190674,342.270416 
M812.913574,442.213501 
	C840.556335,438.680084 859.502991,411.905121 854.431519,383.541321 
	C850.612366,362.181519 832.385010,344.636139 811.367004,342.364746 
	C803.359680,343.128510 794.862061,342.430511 787.434204,344.921875 
	C762.096619,353.420197 749.769287,374.320465 753.034119,400.978943 
	C756.296082,427.614227 785.769897,448.192657 812.913574,442.213501 
M1035.814697,365.732697 
	C1046.879395,366.267365 1050.354370,369.285461 1052.384155,380.402740 
	C1052.828369,382.836334 1052.961426,385.354828 1052.970459,387.835175 
	C1053.023804,402.330780 1052.997437,416.826660 1052.998047,431.322449 
	C1052.998169,434.608948 1052.998169,437.895447 1052.998169,441.370117 
	C1062.270508,441.370117 1070.969727,441.370117 1079.811035,441.370117 
	C1079.811035,419.973816 1080.206543,398.982574 1079.563354,378.023254 
	C1079.377075,371.954346 1077.042114,365.556366 1074.250000,360.039215 
	C1066.904663,345.525208 1048.549072,338.455505 1033.115356,343.791473 
	C1023.865356,345.379730 1018.221252,352.198975 1011.582703,359.526245 
	C1011.582703,341.717682 1011.582703,325.137207 1011.582703,308.439392 
	C1002.516663,308.439392 993.949158,308.439392 985.311462,308.439392 
	C985.311462,352.969666 985.311462,397.159027 985.311462,441.395142 
	C994.301636,441.395142 1002.863098,441.395142 1011.761658,441.395142 
	C1011.761658,424.880707 1012.732605,408.660828 1011.441956,392.622925 
	C1010.479675,380.665710 1023.648743,365.606750 1035.814697,365.732697 
M922.194458,420.790955 
	C926.283630,425.581512 930.699707,430.136414 934.369812,435.228943 
	C938.028625,440.306000 942.270386,442.445221 948.634155,441.889984 
	C955.636047,441.279083 962.732300,441.750702 969.787476,441.750702 
	C970.028687,441.255463 970.269958,440.760254 970.511169,440.265015 
	C955.202454,422.849060 939.893738,405.433075 924.502747,387.289734 
	C924.342590,385.863251 924.182373,384.436768 924.622009,382.726501 
	C937.118774,369.767761 949.615540,356.809021 962.696655,343.244324 
	C954.489197,343.244324 947.144104,343.949188 939.995728,343.064819 
	C931.179382,341.974060 926.001831,346.188629 921.129333,353.091553 
	C914.018005,360.681549 906.906677,368.271576 898.706421,377.023804 
	C898.706421,353.150055 898.706421,330.823212 898.706421,308.397827 
	C889.281067,308.397827 880.536804,308.397827 871.561707,308.397827 
	C871.561707,352.891266 871.561707,397.090759 871.561707,441.335266 
	C880.742859,441.335266 889.614380,441.335266 898.730896,441.335266 
	C898.730896,433.115479 899.239502,425.254456 898.577942,417.493164 
	C897.997070,410.678619 901.333435,406.677795 906.284180,402.723083 
	C911.583374,408.642761 916.752441,414.417053 922.194458,420.790955 
z"/>
<path fill="#EC7EB0" opacity="1.000000" stroke="none" 
	d="
M477.986176,237.153931 
	C489.344849,237.118576 500.703522,237.083206 512.530029,237.559326 
	C512.998596,324.875305 513.014099,411.679810 512.957092,498.484253 
	C512.954163,502.936371 512.328491,507.388123 511.992767,511.840027 
	C501.634216,511.883698 491.275696,511.927338 480.456482,511.451111 
	C479.996094,499.636627 479.996368,488.342010 480.314087,476.870483 
	C481.725555,474.340576 483.365021,472.084473 483.803711,469.615051 
	C484.817383,463.909363 485.611206,458.115509 485.854736,452.330505 
	C486.986267,425.449280 488.080536,398.563751 488.804871,371.669464 
	C489.104218,360.555328 488.513855,349.413391 488.200439,338.287659 
	C487.840149,325.498322 487.663391,312.690674 486.786896,299.933563 
	C486.175293,291.031799 484.462555,282.208954 483.362183,273.335907 
	C482.942810,269.954407 481.364685,267.825256 477.983215,266.672119 
	C477.989471,256.514069 477.987823,246.834000 477.986176,237.153931 
z"/>
<path fill="#DD4781" opacity="1.000000" stroke="none" 
	d="
M288.992615,511.830963 
	C280.969604,511.878601 272.946594,511.926270 264.460968,511.446655 
	C263.998901,422.285156 263.990967,333.650940 264.041687,245.016754 
	C264.043182,242.399902 264.662201,239.783432 264.993317,237.166779 
	C272.683685,237.124405 280.374023,237.082031 288.530823,237.561249 
	C289.031830,248.465393 289.066437,258.847931 289.039124,269.630463 
	C288.433533,278.970612 287.693115,287.903931 287.384033,296.852203 
	C286.547028,321.082550 285.535004,345.315094 285.259003,369.554382 
	C284.927917,398.638489 285.065491,427.733795 285.510284,456.816437 
	C285.613739,463.580170 287.779053,470.312378 288.996948,477.524048 
	C288.996399,489.269653 288.994507,500.550323 288.992615,511.830963 
z"/>
<path fill="#DC427D" opacity="1.000000" stroke="none" 
	d="
M264.557648,237.101913 
	C264.662201,239.783432 264.043182,242.399902 264.041687,245.016754 
	C263.990967,333.650940 263.998901,422.285156 263.996735,511.376587 
	C250.634079,512.498230 244.000458,506.285248 243.999298,493.044525 
	C243.992447,414.277863 243.994141,335.511200 243.997498,256.744537 
	C243.998093,242.738571 249.963745,236.906601 264.557648,237.101913 
z"/>
<path fill="#E86EA2" opacity="1.000000" stroke="none" 
	d="
M924.022156,383.010284 
	C924.182373,384.436768 924.342590,385.863251 924.193665,387.783813 
	C923.589722,395.657928 923.362976,403.041656 922.968811,410.416412 
	C922.794128,413.684052 922.281006,416.933624 921.921509,420.191345 
	C916.752441,414.417053 911.583374,408.642761 906.284180,402.723083 
	C901.333435,406.677795 897.997070,410.678619 898.577942,417.493164 
	C899.239502,425.254456 898.730896,433.115479 898.730896,441.335266 
	C889.614380,441.335266 880.742859,441.335266 871.561707,441.335266 
	C871.561707,397.090759 871.561707,352.891266 871.561707,308.397827 
	C880.536804,308.397827 889.281067,308.397827 898.706421,308.397827 
	C898.706421,330.823212 898.706421,353.150055 898.706421,377.023804 
	C906.906677,368.271576 914.018005,360.681549 921.766357,353.237427 
	C922.602295,361.395233 922.746887,369.409119 923.040161,377.417572 
	C923.108826,379.291260 923.681458,381.146515 924.022156,383.010284 
z"/>
<path fill="#EE82B4" opacity="1.000000" stroke="none" 
	d="
M512.400024,511.899475 
	C512.328491,507.388123 512.954163,502.936371 512.957092,498.484253 
	C513.014099,411.679810 512.998596,324.875305 512.995117,237.615448 
	C522.513916,237.402817 529.147705,243.783752 529.152710,253.105896 
	C529.196106,333.926727 529.193787,414.747559 529.158875,495.568420 
	C529.154663,505.208008 522.830261,511.411133 512.400024,511.899475 
z"/>
<path fill="#EC7AAD" opacity="1.000000" stroke="none" 
	d="
M1034.959473,365.528687 
	C1023.648743,365.606750 1010.479675,380.665710 1011.441956,392.622925 
	C1012.732605,408.660828 1011.761658,424.880707 1011.761658,441.395142 
	C1002.863098,441.395142 994.301636,441.395142 985.311462,441.395142 
	C985.311462,397.159027 985.311462,352.969666 985.311462,308.439392 
	C993.949158,308.439392 1002.516663,308.439392 1011.582703,308.439392 
	C1011.582703,325.137207 1011.582703,341.717682 1011.582703,359.526245 
	C1018.221252,352.198975 1023.865356,345.379730 1033.675415,344.169189 
	C1034.476807,351.540833 1034.718140,358.534760 1034.959473,365.528687 
z"/>
<path fill="#DC457E" opacity="1.000000" stroke="none" 
	d="
M634.744019,371.654633 
	C630.585938,368.113953 625.997559,365.699982 620.341003,365.674103 
	C607.566162,365.615631 597.287048,375.852600 597.179626,389.132050 
	C597.054443,404.613983 597.150146,420.097656 597.149963,435.580597 
	C597.149902,437.388428 597.149963,439.196228 597.149963,441.321625 
	C588.156128,441.321625 579.560974,441.321625 570.546997,441.321625 
	C570.546997,408.885864 570.546997,376.398682 570.546997,343.634399 
	C579.196533,343.634399 587.779419,343.634399 596.903687,343.634399 
	C596.903687,348.909393 596.903687,354.079254 596.903687,360.687897 
	C606.353577,345.273315 618.883362,339.767609 635.584717,343.647705 
	C635.573059,353.376495 635.158569,362.515564 634.744019,371.654633 
z"/>
<path fill="#E35D94" opacity="1.000000" stroke="none" 
	d="
M812.079102,442.203766 
	C785.769897,448.192657 756.296082,427.614227 753.034119,400.978943 
	C749.769287,374.320465 762.096619,353.420197 787.434204,344.921875 
	C794.862061,342.430511 803.359680,343.128510 811.699097,343.058533 
	C811.684448,351.428619 811.337708,359.104980 810.580811,366.765137 
	C790.755127,361.919556 774.437927,378.744995 779.834229,400.334351 
	C783.536499,415.146210 795.889771,421.600403 811.995239,418.663422 
	C812.023926,426.813934 812.051514,434.508850 812.079102,442.203766 
z"/>
<path fill="#E86EA2" opacity="1.000000" stroke="none" 
	d="
M452.988159,511.831512 
	C439.298065,511.878998 425.607971,511.926453 411.457153,511.450134 
	C410.989716,500.899933 410.982971,490.873505 411.329498,480.645569 
	C417.698700,480.444031 423.714661,480.444031 430.284271,480.444031 
	C429.596954,478.635132 429.486816,478.147491 429.245117,477.737396 
	C413.650665,451.281799 409.444183,423.110229 416.545563,393.252380 
	C418.172150,386.413361 422.538177,383.606415 428.923157,385.111023 
	C434.195496,386.353485 437.064117,391.406494 435.674286,397.709167 
	C433.036011,409.673187 432.004120,421.691040 433.953217,433.844147 
	C436.657959,450.708832 442.534760,466.198334 453.921143,479.615662 
	C453.572235,481.967651 453.059021,483.916565 453.037842,485.870819 
	C452.944122,494.523560 452.991699,503.177795 452.988159,511.831512 
z"/>
<path fill="#DE4D86" opacity="1.000000" stroke="none" 
	d="
M634.853882,371.958618 
	C635.158569,362.515564 635.573059,353.376495 635.981934,343.793579 
	C647.960938,345.888947 656.287292,353.259247 662.288696,363.702087 
	C669.830811,350.872406 680.509583,343.478973 695.588440,342.764648 
	C695.993835,350.822601 696.001404,358.386261 696.009033,365.949951 
	C680.163208,364.001740 672.964661,371.928162 668.682007,382.452209 
	C667.708862,384.843506 667.230652,387.595703 667.207703,390.187866 
	C667.073120,405.344849 667.141663,420.503601 667.141602,435.661774 
	C667.141602,437.460480 667.141602,439.259155 667.141602,441.351257 
	C658.070984,441.351257 649.477844,441.351257 640.130615,441.351257 
	C640.130615,439.569183 640.130615,437.818665 640.130615,436.068146 
	C640.130554,420.743408 639.983826,405.416595 640.198914,390.094879 
	C640.291504,383.500946 638.744629,377.609894 634.853882,371.958618 
z"/>
<path fill="#E25990" opacity="1.000000" stroke="none" 
	d="
M362.994263,511.828247 
	C350.967529,511.878082 338.940765,511.927887 326.454224,511.448120 
	C325.996185,500.869232 326.062317,490.819153 325.946777,480.771149 
	C325.922913,478.694977 325.222870,476.626526 324.958008,474.252197 
	C327.374786,470.121155 329.934387,466.425018 331.916504,462.441498 
	C342.303497,441.566864 344.429260,419.681244 339.622955,396.981567 
	C338.286713,390.670624 340.725311,386.420258 346.187927,385.080017 
	C352.141235,383.619385 357.158691,386.518066 358.576630,392.760773 
	C363.743225,415.507263 362.855072,437.958618 354.368225,459.830017 
	C351.721100,466.651794 348.352142,473.193451 344.767456,481.062256 
	C351.427704,481.062256 357.212891,481.062256 362.998535,481.527008 
	C362.997406,491.937256 362.995850,501.882751 362.994263,511.828247 
z"/>
<path fill="#EE82B4" opacity="1.000000" stroke="none" 
	d="
M1035.387085,365.630676 
	C1034.718140,358.534760 1034.476807,351.540833 1034.067383,344.134491 
	C1048.549072,338.455505 1066.904663,345.525208 1074.250000,360.039215 
	C1077.042114,365.556366 1079.377075,371.954346 1079.563354,378.023254 
	C1080.206543,398.982574 1079.811035,419.973816 1079.811035,441.370117 
	C1070.969727,441.370117 1062.270508,441.370117 1052.998169,441.370117 
	C1052.998169,437.895447 1052.998169,434.608948 1052.998047,431.322449 
	C1052.997437,416.826660 1053.023804,402.330780 1052.970459,387.835175 
	C1052.961426,385.354828 1052.828369,382.836334 1052.384155,380.402740 
	C1050.354370,369.285461 1046.879395,366.267365 1035.387085,365.630676 
z"/>
<path fill="#E1568E" opacity="1.000000" stroke="none" 
	d="
M696.270142,366.176208 
	C696.001404,358.386261 695.993835,350.822601 695.978943,342.817749 
	C713.629333,340.392456 729.947693,351.283356 734.698120,368.479004 
	C735.931091,372.942200 737.078064,377.601349 737.140564,382.185822 
	C737.407593,401.796326 737.254272,421.412537 737.254272,441.351746 
	C728.570801,441.351746 719.823669,441.351746 710.323608,441.351746 
	C710.323608,439.679565 710.327698,437.926544 710.323059,436.173492 
	C710.277649,419.190521 710.466248,402.202301 710.089111,385.226654 
	C709.888000,376.174805 705.741821,369.296600 696.270142,366.176208 
z"/>
<path fill="#E5649A" opacity="1.000000" stroke="none" 
	d="
M810.990967,366.781311 
	C811.337708,359.104980 811.684448,351.428619 812.058350,343.265961 
	C832.385010,344.636139 850.612366,362.181519 854.431519,383.541321 
	C859.502991,411.905121 840.556335,438.680084 812.496338,442.208618 
	C812.051514,434.508850 812.023926,426.813934 812.303589,418.488525 
	C823.984009,412.619171 829.659729,403.738373 828.971985,391.231201 
	C828.316284,379.306458 822.553406,370.835327 810.990967,366.781311 
z"/>
<path fill="#E5649A" opacity="1.000000" stroke="none" 
	d="
M364.986816,237.157120 
	C380.342529,237.120117 395.698303,237.083115 411.462280,237.506439 
	C411.909607,247.923843 411.948700,257.880920 411.523651,267.895935 
	C405.780334,267.953857 400.501129,267.953857 394.868530,267.953857 
	C394.545319,272.635101 393.916016,276.595367 394.068298,280.525360 
	C394.498413,291.625275 395.407440,302.707001 395.816620,313.807343 
	C396.078918,320.923523 393.004272,324.421265 387.053802,324.686218 
	C381.553406,324.931122 376.595886,320.655762 376.157349,314.578888 
	C375.334167,303.171173 374.776764,291.740326 374.351471,280.310059 
	C374.207092,276.428894 374.794037,272.520569 375.090149,267.956787 
	C371.233185,267.956787 368.114441,267.956787 364.997864,267.490845 
	C364.995605,257.068970 364.991211,247.113052 364.986816,237.157120 
z"/>
<path fill="#DE4D86" opacity="1.000000" stroke="none" 
	d="
M324.834442,474.554535 
	C325.222870,476.626526 325.922913,478.694977 325.946777,480.771149 
	C326.062317,490.819153 325.996185,500.869232 325.989685,511.375336 
	C313.963928,511.878510 301.942902,511.924927 289.457245,511.901154 
	C288.994507,500.550323 288.996399,489.269653 289.418274,477.528076 
	C297.711639,477.847504 305.690552,478.085815 313.422760,479.591217 
	C318.949097,480.667145 322.068329,478.576965 324.834442,474.554535 
z"/>
<path fill="#E25990" opacity="1.000000" stroke="none" 
	d="
M364.522156,237.099060 
	C364.991211,247.113052 364.995605,257.068970 364.558228,267.554016 
	C351.404877,268.258331 338.693359,268.433563 325.984863,268.164673 
	C325.986969,257.536346 325.985992,247.352158 325.985016,237.167969 
	C338.675842,237.125656 351.366669,237.083328 364.522156,237.099060 
z"/>
<path fill="#EA74A8" opacity="1.000000" stroke="none" 
	d="
M922.057983,420.491150 
	C922.281006,416.933624 922.794128,413.684052 922.968811,410.416412 
	C923.362976,403.041656 923.589722,395.657928 924.234802,388.147491 
	C939.893738,405.433075 955.202454,422.849060 970.511169,440.265015 
	C970.269958,440.760254 970.028687,441.255463 969.787476,441.750702 
	C962.732300,441.750702 955.636047,441.279083 948.634155,441.889984 
	C942.270386,442.445221 938.028625,440.306000 934.369812,435.228943 
	C930.699707,430.136414 926.283630,425.581512 922.057983,420.491150 
z"/>
<path fill="#DE4D86" opacity="1.000000" stroke="none" 
	d="
M325.520691,237.108246 
	C325.985992,247.352158 325.986969,257.536346 325.524292,268.250702 
	C313.074127,268.930725 301.087585,269.080597 289.101044,269.230469 
	C289.066437,258.847931 289.031830,248.465393 288.994934,237.625946 
	C301.013885,237.128845 313.035126,237.088669 325.520691,237.108246 
z"/>
<path fill="#EA74A8" opacity="1.000000" stroke="none" 
	d="
M477.521240,237.099182 
	C477.987823,246.834000 477.989471,256.514069 477.517334,266.705536 
	C466.024719,267.357635 455.005829,267.498291 443.990234,267.192932 
	C443.992401,256.883820 443.991364,247.020737 443.990326,237.157639 
	C455.012329,237.119904 466.034332,237.082153 477.521240,237.099182 
z"/>
<path fill="#E86EA2" opacity="1.000000" stroke="none" 
	d="
M443.525391,237.099701 
	C443.991364,247.020737 443.992401,256.883820 443.529236,267.280823 
	C432.705963,267.822479 422.346863,267.830231 411.987793,267.838013 
	C411.948700,257.880920 411.909607,247.923843 411.926575,237.564026 
	C422.341949,237.121445 432.701202,237.081604 443.525391,237.099701 
z"/>
<path fill="#EA74A8" opacity="1.000000" stroke="none" 
	d="
M453.453705,511.898163 
	C452.991699,503.177795 452.944122,494.523560 453.037842,485.870819 
	C453.059021,483.916565 453.572235,481.967651 454.385529,479.574615 
	C463.273621,478.437744 471.635132,477.742554 479.996643,477.047363 
	C479.996368,488.342010 479.996094,499.636627 479.990845,511.387329 
	C471.297028,511.883881 462.608124,511.924347 453.453705,511.898163 
z"/>
<path fill="#EA74A8" opacity="1.000000" stroke="none" 
	d="
M924.322083,382.868408 
	C923.681458,381.146515 923.108826,379.291260 923.040161,377.417572 
	C922.746887,369.409119 922.602295,361.395233 922.061279,353.099640 
	C926.001831,346.188629 931.179382,341.974060 939.995728,343.064819 
	C947.144104,343.949188 954.489197,343.244324 962.696655,343.244324 
	C949.615540,356.809021 937.118774,369.767761 924.322083,382.868408 
z"/>
<path fill="#E5649A" opacity="1.000000" stroke="none" 
	d="
M410.976227,480.847046 
	C410.982971,490.873505 410.989716,500.899933 410.992065,511.382904 
	C402.631836,511.881805 394.275970,511.924164 385.458191,511.441833 
	C384.996155,500.965271 384.996063,491.013428 385.460083,480.986755 
	C394.274841,480.890350 402.625549,480.868683 410.976227,480.847046 
z"/>
<path fill="#E35D94" opacity="1.000000" stroke="none" 
	d="
M384.995972,481.061584 
	C384.996063,491.013428 384.996155,500.965271 384.993469,511.373291 
	C377.968445,511.874207 370.946136,511.918976 363.459045,511.895996 
	C362.995850,501.882751 362.997406,491.937256 363.462311,481.451782 
	C370.949066,480.961731 377.972534,481.011658 384.995972,481.061584 
z"/>
<path fill="#FFFEFF" opacity="1.000000" stroke="none" 
	d="
M385.460083,480.986786 
	C377.972534,481.011658 370.949066,480.961731 363.461853,480.987030 
	C357.212891,481.062256 351.427704,481.062256 344.767456,481.062256 
	C348.352142,473.193451 351.721100,466.651794 354.368225,459.830017 
	C362.855072,437.958618 363.743225,415.507263 358.576630,392.760773 
	C357.158691,386.518066 352.141235,383.619385 346.187927,385.080017 
	C340.725311,386.420258 338.286713,390.670624 339.622955,396.981567 
	C344.429260,419.681244 342.303497,441.566864 331.916504,462.441498 
	C329.934387,466.425018 327.374786,470.121155 324.958008,474.252197 
	C322.068329,478.576965 318.949097,480.667145 313.422760,479.591217 
	C305.690552,478.085815 297.711639,477.847504 289.416931,477.063110 
	C287.779053,470.312378 285.613739,463.580170 285.510284,456.816437 
	C285.065491,427.733795 284.927917,398.638489 285.259003,369.554382 
	C285.535004,345.315094 286.547028,321.082550 287.384033,296.852203 
	C287.693115,287.903931 288.433533,278.970612 289.039124,269.630463 
	C301.087585,269.080597 313.074127,268.930725 325.521240,268.694824 
	C338.693359,268.433563 351.404877,268.258331 364.556091,268.019958 
	C368.114441,267.956787 371.233185,267.956787 375.090149,267.956787 
	C374.794037,272.520569 374.207092,276.428894 374.351471,280.310059 
	C374.776764,291.740326 375.334167,303.171173 376.157349,314.578888 
	C376.595886,320.655762 381.553406,324.931122 387.053802,324.686218 
	C393.004272,324.421265 396.078918,320.923523 395.816620,313.807343 
	C395.407440,302.707001 394.498413,291.625275 394.068298,280.525360 
	C393.916016,276.595367 394.545319,272.635101 394.868530,267.953857 
	C400.501129,267.953857 405.780334,267.953857 411.523682,267.895935 
	C422.346863,267.830231 432.705963,267.822479 443.526001,267.726868 
	C455.005829,267.498291 466.024719,267.357635 477.509430,267.183533 
	C481.364685,267.825256 482.942810,269.954407 483.362183,273.335907 
	C484.462555,282.208954 486.175293,291.031799 486.786896,299.933563 
	C487.663391,312.690674 487.840149,325.498322 488.200439,338.287659 
	C488.513855,349.413391 489.104218,360.555328 488.804871,371.669464 
	C488.080536,398.563751 486.986267,425.449280 485.854736,452.330505 
	C485.611206,458.115509 484.817383,463.909363 483.803711,469.615051 
	C483.365021,472.084473 481.725555,474.340576 480.314087,476.870483 
	C471.635132,477.742554 463.273621,478.437744 454.447723,479.174011 
	C442.534760,466.198334 436.657959,450.708832 433.953217,433.844147 
	C432.004120,421.691040 433.036011,409.673187 435.674286,397.709167 
	C437.064117,391.406494 434.195496,386.353485 428.923157,385.111023 
	C422.538177,383.606415 418.172150,386.413361 416.545563,393.252380 
	C409.444183,423.110229 413.650665,451.281799 429.245117,477.737396 
	C429.486816,478.147491 429.596954,478.635132 430.284271,480.444031 
	C423.714661,480.444031 417.698700,480.444031 411.329498,480.645538 
	C402.625549,480.868683 394.274841,480.890350 385.460083,480.986786 
z"/>
<path fill="#FFFEFF" opacity="1.000000" stroke="none" 
	d="
M810.580811,366.765137 
	C822.553406,370.835327 828.316284,379.306458 828.971985,391.231201 
	C829.659729,403.738373 823.984009,412.619171 812.302490,418.032959 
	C795.889771,421.600403 783.536499,415.146210 779.834229,400.334351 
	C774.437927,378.744995 790.755127,361.919556 810.580811,366.765137 
z"/>
</svg>